<svg width="37" height="34" viewBox="0 0 37 34" fill="none" xmlns="http://www.w3.org/2000/svg">
<path d="M10.8317 8.33164H15.415M10.8317 14.9983H15.415M10.8317 21.665H15.415M21.2484 8.33164H25.8317M21.2484 14.9983H25.8317M21.2484 21.665H25.8317M31.665 31.665V6.99831C31.665 5.13147 31.665 4.19805 31.3017 3.48501C30.9821 2.8578 30.4722 2.34787 29.845 2.02829C29.132 1.66498 28.1985 1.66498 26.3317 1.66498H10.3317C8.46486 1.66498 7.53144 1.66498 6.8184 2.02829C6.1912 2.34787 5.68126 2.8578 5.36168 3.48501C4.99837 4.19805 4.99837 5.13147 4.99837 6.99831V31.665M34.9984 31.665H1.66504" stroke="#44795C" stroke-width="3.33" stroke-linecap="round" stroke-linejoin="round"/>
</svg>
