<svg width="37" height="35" viewBox="0 0 37 35" fill="none" xmlns="http://www.w3.org/2000/svg">
<path d="M13.3317 32.915V20.5816C13.3317 19.6482 13.3317 19.1815 13.5134 18.825C13.6732 18.5114 13.9281 18.2564 14.2417 18.0966C14.5982 17.915 15.065 17.915 15.9984 17.915H20.665C21.5985 17.915 22.0652 17.915 22.4217 18.0966C22.7353 18.2564 22.9903 18.5114 23.1501 18.825C23.3317 19.1815 23.3317 19.6482 23.3317 20.5816V32.915M1.66504 13.7483L16.7317 2.44831C17.3055 2.01799 17.5924 1.80283 17.9074 1.71989C18.1855 1.64668 18.4779 1.64668 18.756 1.71989C19.0711 1.80283 19.3579 2.01799 19.9317 2.44831L34.9984 13.7483M4.99838 11.2483V27.5816C4.99838 29.4485 4.99838 30.3819 5.36169 31.0949C5.68127 31.7222 6.1912 32.2321 6.81841 32.5517C7.53145 32.915 8.46487 32.915 10.3317 32.915H26.3317C28.1986 32.915 29.132 32.915 29.845 32.5517C30.4722 32.2321 30.9822 31.7222 31.3017 31.0949C31.665 30.3819 31.665 29.4485 31.665 27.5816V11.2483L21.5317 3.64831C20.3842 2.78767 19.8104 2.35734 19.1803 2.19146C18.624 2.04504 18.0394 2.04504 17.4832 2.19146C16.853 2.35734 16.2792 2.78767 15.1317 3.64831L4.99838 11.2483Z" stroke="#44795C" stroke-width="3.33" stroke-linecap="round" stroke-linejoin="round"/>
</svg>
