<svg width="34" height="35" viewBox="0 0 34 35" fill="none" xmlns="http://www.w3.org/2000/svg">
<path d="M18.3025 2.49357C17.7169 2.03815 17.4241 1.81043 17.1009 1.7229C16.8156 1.64567 16.515 1.64567 16.2297 1.7229C15.9064 1.81043 15.6137 2.03814 15.0281 2.49357L3.72427 11.2854C2.96865 11.8731 2.59084 12.167 2.31866 12.535C2.07756 12.861 1.89795 13.2282 1.78866 13.6187C1.66528 14.0594 1.66528 14.5381 1.66528 15.4953V27.5535C1.66528 29.4204 1.66528 30.3538 2.02859 31.0668C2.34817 31.6941 2.85811 32.204 3.48531 32.5236C4.19835 32.8869 5.13177 32.8869 6.99862 32.8869H10.3319C10.7987 32.8869 11.032 32.8869 11.2103 32.796C11.3671 32.7162 11.4946 32.5887 11.5745 32.4319C11.6653 32.2536 11.6653 32.0203 11.6653 31.5535V20.5535C11.6653 19.6201 11.6653 19.1534 11.8469 18.7969C12.0067 18.4833 12.2617 18.2283 12.5753 18.0685C12.9318 17.8869 13.3985 17.8869 14.3319 17.8869H18.9986C19.932 17.8869 20.3987 17.8869 20.7553 18.0685C21.0689 18.2283 21.3238 18.4833 21.4836 18.7969C21.6653 19.1534 21.6653 19.6201 21.6653 20.5535V31.5535C21.6653 32.0203 21.6653 32.2536 21.7561 32.4319C21.836 32.5887 21.9635 32.7162 22.1203 32.796C22.2986 32.8869 22.5319 32.8869 22.9986 32.8869H26.3319C28.1988 32.8869 29.1322 32.8869 29.8453 32.5236C30.4725 32.204 30.9824 31.6941 31.302 31.0668C31.6653 30.3538 31.6653 29.4204 31.6653 27.5535V15.4953C31.6653 14.5381 31.6653 14.0594 31.5419 13.6187C31.4326 13.2282 31.253 12.861 31.0119 12.535C30.7397 12.167 30.3619 11.8731 29.6063 11.2854L18.3025 2.49357Z" stroke="#44795C" stroke-width="3.33" stroke-linecap="round" stroke-linejoin="round"/>
</svg>
