<svg width="34" height="35" viewBox="0 0 34 35" fill="none" xmlns="http://www.w3.org/2000/svg">
<path d="M1.66528 15.4953C1.66528 14.5381 1.66528 14.0594 1.78866 13.6187C1.89795 13.2282 2.07756 12.861 2.31866 12.535C2.59084 12.167 2.96865 11.8731 3.72427 11.2854L15.0281 2.49357C15.6137 2.03814 15.9064 1.81043 16.2297 1.7229C16.515 1.64567 16.8156 1.64567 17.1009 1.7229C17.4241 1.81043 17.7169 2.03815 18.3025 2.49357L29.6063 11.2854C30.3619 11.8731 30.7397 12.167 31.0119 12.535C31.253 12.861 31.4326 13.2282 31.5419 13.6187C31.6653 14.0594 31.6653 14.5381 31.6653 15.4953V27.5535C31.6653 29.4204 31.6653 30.3538 31.302 31.0668C30.9824 31.6941 30.4725 32.204 29.8453 32.5236C29.1322 32.8869 28.1988 32.8869 26.3319 32.8869H6.99862C5.13177 32.8869 4.19835 32.8869 3.48531 32.5236C2.85811 32.204 2.34817 31.6941 2.02859 31.0668C1.66528 30.3538 1.66528 29.4204 1.66528 27.5535V15.4953Z" stroke="#44795C" stroke-width="3.33" stroke-linecap="round" stroke-linejoin="round"/>
</svg>
