<svg width="20" height="21" viewBox="0 0 20 21" fill="none" xmlns="http://www.w3.org/2000/svg">
<path d="M10 14.7331C11.6569 14.7331 13 13.39 13 11.7331C13 10.0763 11.6569 8.73314 10 8.73314C8.34315 8.73314 7 10.0763 7 11.7331C7 13.39 8.34315 14.7331 10 14.7331Z" stroke="#44795C" stroke-width="2" stroke-linecap="round" stroke-linejoin="round"/>
<path d="M1 9.29821C1 8.72385 1 8.43667 1.07403 8.17221C1.1396 7.93794 1.24737 7.7176 1.39203 7.52201C1.55534 7.30121 1.78202 7.1249 2.23539 6.77228L9.0177 1.49715C9.36902 1.2239 9.54468 1.08727 9.73865 1.03476C9.9098 0.988415 10.0902 0.988415 10.2613 1.03476C10.4553 1.08727 10.631 1.2239 10.9823 1.49715L17.7646 6.77228C18.218 7.1249 18.4447 7.30121 18.608 7.52201C18.7526 7.7176 18.8604 7.93794 18.926 8.17221C19 8.43667 19 8.72385 19 9.29821V16.5331C19 17.6532 19 18.2133 18.782 18.6411C18.5903 19.0174 18.2843 19.3234 17.908 19.5152C17.4802 19.7331 16.9201 19.7331 15.8 19.7331H4.2C3.07989 19.7331 2.51984 19.7331 2.09202 19.5152C1.71569 19.3234 1.40973 19.0174 1.21799 18.6411C1 18.2133 1 17.6532 1 16.5331V9.29821Z" stroke="#44795C" stroke-width="2" stroke-linecap="round" stroke-linejoin="round"/>
</svg>
