<svg width="17" height="18" viewBox="0 0 17 18" fill="none" xmlns="http://www.w3.org/2000/svg">
<path d="M5.00016 13.1109H11.6668M7.51491 1.24762L1.86299 5.64356C1.48518 5.93741 1.29628 6.08434 1.16019 6.26834C1.03963 6.43133 0.949831 6.61494 0.895186 6.81017C0.833496 7.03056 0.833496 7.26987 0.833496 7.7485V13.7776C0.833496 14.711 0.833496 15.1777 1.01515 15.5343C1.17494 15.8479 1.42991 16.1028 1.74351 16.2626C2.10003 16.4443 2.56674 16.4443 3.50016 16.4443H13.1668C14.1003 16.4443 14.567 16.4443 14.9235 16.2626C15.2371 16.1028 15.4921 15.8479 15.6518 15.5343C15.8335 15.1777 15.8335 14.711 15.8335 13.7776V7.7485C15.8335 7.26987 15.8335 7.03056 15.7718 6.81017C15.7172 6.61494 15.6274 6.43133 15.5068 6.26834C15.3707 6.08434 15.1818 5.93741 14.804 5.64356L9.15208 1.24762C8.85931 1.01991 8.71293 0.906056 8.55129 0.862291C8.40866 0.823674 8.25833 0.823674 8.11571 0.862291C7.95407 0.906056 7.80768 1.01991 7.51491 1.24762Z" stroke="#E5E7EB" stroke-width="1.66667" stroke-linecap="round" stroke-linejoin="round"/>
</svg>
